<svg width="183" height="52" viewBox="0 0 183 52" fill="none" xmlns="http://www.w3.org/2000/svg">
<g clip-path="url(#clip0_878_734)">
<path d="M61.8797 17.378C63.2207 17.3422 64.5532 17.6 65.7841 18.1333C66.8065 18.5804 67.6719 19.3228 68.2693 20.2652C68.852 21.2462 69.1475 22.3711 69.1221 23.5118C69.1487 24.6507 68.8531 25.774 68.2693 26.7522C67.6723 27.6965 66.8069 28.4409 65.7841 28.8902C64.5481 29.4202 63.2119 29.6758 61.8675 29.6394H54.7592V25.1259H61.5203C62.001 25.1572 62.4756 25.0048 62.8482 24.6995C63.15 24.374 63.3177 23.9465 63.3177 23.5026C63.3177 23.0587 63.15 22.6312 62.8482 22.3057C62.471 22.0101 61.9987 21.8627 61.5203 21.8915H55.2526L57.8657 19.2845V34.22H52.0669V17.378H61.8797Z" fill="#B8DE00"/>
<path d="M77.0651 25.802L76.0357 32.0637L73.8307 29.6273H86.6221V34.2078H70.304L71.5222 25.7899L70.304 17.3658H86.6099V21.9463H73.8185L76.0235 19.5099L77.0651 25.802ZM86.6099 23.8041V27.7999H73.0937V23.8041H86.6099Z" fill="#B8DE00"/>
<path d="M104.914 29.9988L103.342 30.3826V17.378H108.958V34.22H101.722L93.3465 21.2398L94.9241 20.8621V34.22H89.3081V17.378H96.7819L104.914 29.9988Z" fill="#B8DE00"/>
<path d="M129.528 26.9472C129.476 27.9274 129.27 28.8934 128.919 29.81C128.567 30.7274 128.039 31.5674 127.366 32.283C126.64 33.0427 125.754 33.6298 124.771 34.0007C123.578 34.439 122.313 34.6457 121.043 34.6098C119.789 34.6162 118.542 34.4271 117.346 34.0494C116.222 33.6936 115.178 33.1249 114.27 32.3744C113.372 31.6209 112.654 30.676 112.168 29.609C111.64 28.4043 111.38 27.099 111.407 25.7838C111.38 24.4666 111.64 23.1593 112.168 21.9525C112.657 20.8809 113.387 19.9366 114.3 19.1932C115.239 18.4369 116.314 17.8682 117.468 17.5181C120.388 16.6778 123.499 16.7845 126.355 17.8227C127.645 18.3302 128.792 19.1433 129.699 20.1921C130.542 21.191 131.119 22.3877 131.374 23.6702H125.557C125.412 23.2382 125.133 22.8643 124.759 22.6042C124.32 22.2928 123.829 22.0637 123.309 21.9281C122.686 21.768 122.045 21.6902 121.402 21.6966C120.63 21.6767 119.863 21.8264 119.155 22.1352C118.54 22.4112 118.031 22.8793 117.705 23.4691C117.342 24.1849 117.168 24.9817 117.2 25.7838C117.168 26.6152 117.366 27.4394 117.772 28.1654C118.146 28.7947 118.712 29.2878 119.386 29.5725C120.191 29.8892 121.05 30.0424 121.914 30.0232C122.764 30.036 123.612 29.9252 124.43 29.6943C125.1 29.5149 125.714 29.1692 126.214 28.6892C126.677 28.2153 126.972 27.6038 127.055 26.9472H129.528ZM122.298 29.1887V25.2173H131.508V34.22H127.488L126.635 27.7756L127.646 29.1887H122.298Z" fill="#B8DE00"/>
<path d="M139.999 26.4964C139.982 27.0422 140.093 27.5843 140.321 28.0801C140.537 28.5172 140.884 28.8753 141.314 29.1034C141.853 29.3629 142.447 29.4863 143.044 29.4628C143.648 29.4866 144.249 29.3677 144.798 29.1156C145.23 28.8913 145.577 28.532 145.785 28.0923C146.003 27.5891 146.109 27.0446 146.096 26.4964V17.3597H151.895V26.801C151.927 28.2467 151.544 29.6714 150.792 30.9064C150.043 32.0912 148.972 33.0378 147.704 33.6352C146.24 34.2821 144.657 34.6162 143.056 34.6162C141.456 34.6162 139.873 34.2821 138.409 33.6352C137.117 33.0309 136.03 32.0619 135.282 30.8475C134.535 29.6332 134.158 28.2266 134.2 26.801V17.378H139.999V26.4964Z" fill="#B8DE00"/>
<path d="M154.593 17.378H160.386V34.22H154.593V17.378Z" fill="#B8DE00"/>
<path d="M178.689 29.9988L177.118 30.3826V17.378H182.734V34.22H175.479L167.122 21.2398L168.7 20.8621V34.22H163.084V17.378H170.552L178.689 29.9988Z" fill="#B8DE00"/>
<path d="M51.7258 43.5029H54.8201C54.8533 43.6816 54.9508 43.842 55.0942 43.9536C55.2757 44.0882 55.4831 44.1836 55.7033 44.2338C56.3789 44.3832 57.0802 44.3707 57.75 44.1973C58.018 44.0998 58.152 43.9475 58.152 43.7283C58.1484 43.654 58.1259 43.582 58.0864 43.519C58.0469 43.4561 57.9919 43.4044 57.9266 43.3689C57.6337 43.2372 57.3158 43.1707 56.9947 43.174L55.5206 43.0765C54.4895 43.09 53.4786 42.7906 52.6212 42.2176C52.3414 41.9864 52.1191 41.6932 51.9722 41.3613C51.8252 41.0293 51.7576 40.6677 51.7746 40.305C51.7517 39.6988 51.9559 39.1058 52.3471 38.6422C52.7772 38.1646 53.332 37.8166 53.9491 37.6371C54.7392 37.4013 55.5612 37.2903 56.3855 37.3082C57.1969 37.2937 58.0047 37.4194 58.7733 37.6798C59.4023 37.8889 59.9695 38.251 60.424 38.7335C60.8247 39.168 61.0635 39.7273 61.1001 40.3172H57.9388C57.9103 40.169 57.8279 40.0365 57.7073 39.9457C57.5417 39.8277 57.3527 39.7467 57.153 39.7081C56.8665 39.6497 56.5744 39.6232 56.282 39.6289C55.9343 39.6173 55.5869 39.6605 55.2526 39.7568C55.0029 39.8421 54.881 39.9883 54.881 40.1832C54.8836 40.2553 54.9053 40.3254 54.9438 40.3864C54.9823 40.4474 55.0363 40.4971 55.1003 40.5304C55.3668 40.6564 55.6583 40.721 55.9531 40.7192L57.616 40.8289C58.3372 40.8554 59.0509 40.9846 59.7357 41.2126C60.1988 41.3642 60.6074 41.6479 60.9113 42.0288C61.1717 42.4193 61.3037 42.8814 61.2889 43.3506C61.2926 43.9786 61.0772 44.5882 60.6798 45.0744C60.2626 45.602 59.7115 46.008 59.0839 46.25C58.3033 46.5328 57.4777 46.671 56.6475 46.6581C55.7741 46.6836 54.9028 46.56 54.0709 46.2926C53.4191 46.069 52.8374 45.6783 52.3837 45.1597C51.9752 44.7027 51.7421 44.1156 51.7258 43.5029Z" fill="#B8DE00"/>
<path d="M62.0686 37.5214H71.5586V40.2563H62.0686V37.5214ZM65.2786 38.8431H68.3242V46.4449H65.2786V38.8431Z" fill="#B8DE00"/>
<path d="M75.9503 42.3516C75.9424 42.6412 76.0007 42.9287 76.1209 43.1922C76.2364 43.4224 76.4219 43.6101 76.6508 43.7282C76.9366 43.8682 77.2526 43.9352 77.5706 43.9231C77.89 43.9368 78.2079 43.872 78.4964 43.7343C78.7274 43.6211 78.9123 43.4318 79.0203 43.1983C79.1348 42.931 79.1908 42.6423 79.1847 42.3516V37.5214H82.2303V42.5161C82.2407 43.2864 82.0292 44.0433 81.6212 44.6967C81.224 45.3222 80.6581 45.8227 79.9888 46.1403C79.2127 46.4836 78.3735 46.6609 77.5249 46.6609C76.6763 46.6609 75.8371 46.4836 75.061 46.1403C74.3704 45.8189 73.7903 45.3005 73.3936 44.6502C72.9969 43.9999 72.8014 43.2468 72.8317 42.4856V37.5214H75.8772L75.9503 42.3516Z" fill="#B8DE00"/>
<path d="M88.3214 37.5214C89.3005 37.498 90.2731 37.6872 91.1721 38.0757C91.9396 38.4034 92.5985 38.942 93.0725 39.6289C93.5141 40.3336 93.7483 41.1484 93.7483 41.9801C93.7483 42.8117 93.5141 43.6265 93.0725 44.3312C92.597 45.0182 91.9386 45.5583 91.1721 45.8906C90.2731 46.2791 89.3005 46.4682 88.3214 46.4449H83.5886V37.5214H88.3214ZM86.622 45.0744L85.2393 43.71H88.5468C88.9332 43.7188 89.3172 43.6461 89.6737 43.4968C89.9697 43.3717 90.2205 43.1592 90.3924 42.8877C90.5528 42.6099 90.6372 42.2947 90.6372 41.974C90.6372 41.6532 90.5528 41.3381 90.3924 41.0603C90.2187 40.7903 89.9685 40.5782 89.6737 40.4512C89.3158 40.3069 88.9325 40.2365 88.5468 40.2441H85.2393L86.622 38.8797V45.0744Z" fill="#B8DE00"/>
<path d="M94.9607 37.5214H98.0063V46.4449H94.9607V37.5214Z" fill="#B8DE00"/>
<path d="M104.664 46.6581C103.68 46.6718 102.706 46.4636 101.813 46.049C101.038 45.711 100.374 45.1623 99.8947 44.4653C99.4484 43.7231 99.2126 42.8735 99.2126 42.0075C99.2126 41.1415 99.4484 40.2919 99.8947 39.5497C100.36 38.8367 101.016 38.2689 101.789 37.9112C102.691 37.5293 103.66 37.3324 104.64 37.3324C105.619 37.3324 106.588 37.5293 107.49 37.9112C108.263 38.2689 108.919 38.8367 109.385 39.5497C109.831 40.2919 110.067 41.1415 110.067 42.0075C110.067 42.8735 109.831 43.7231 109.385 44.4653C108.919 45.1768 108.263 45.7426 107.49 46.0977C106.602 46.492 105.636 46.6835 104.664 46.6581ZM104.664 43.9232C105.082 43.9287 105.496 43.8499 105.882 43.6917C106.21 43.5515 106.489 43.3186 106.686 43.0217C106.882 42.7106 106.98 42.3476 106.966 41.9801C106.977 41.613 106.88 41.2508 106.686 40.9385C106.488 40.6438 106.209 40.4131 105.882 40.2746C105.078 39.966 104.189 39.966 103.385 40.2746C103.058 40.4131 102.779 40.6438 102.581 40.9385C102.39 41.2519 102.293 41.6133 102.301 41.9801C102.292 42.3471 102.389 42.7088 102.581 43.0217C102.778 43.3186 103.057 43.5515 103.385 43.6917C103.79 43.8582 104.226 43.9371 104.664 43.9232Z" fill="#B8DE00"/>
<path d="M44.7332 30.8759C44.6408 28.3021 43.9903 25.779 42.8267 23.4813C41.6204 21.1492 39.9642 19.079 37.9538 17.3902C35.6314 15.4457 32.937 13.995 30.0353 13.1264C28.3382 12.6181 26.7628 11.7683 25.406 10.629L25.2477 10.495C24.8254 10.0895 24.4975 9.59615 24.2869 9.04987C24.0764 8.50359 23.9885 7.91772 24.0295 7.33372C24.0925 6.67225 24.3347 6.04049 24.7299 5.50638C25.8768 3.88006 27.4547 2.60596 29.2861 1.82733L29.5541 1.69942C29.7504 1.62834 29.9104 1.4822 29.9989 1.29315C30.0875 1.10409 30.0973 0.887618 30.0262 0.691338C29.9551 0.495059 29.8089 0.335055 29.6199 0.246526C29.4308 0.157997 29.2144 0.148195 29.0181 0.219275C28.8059 0.288833 28.6017 0.380715 28.409 0.493376C27.431 1.08536 26.3409 1.46789 25.2075 1.61678C24.0741 1.76566 22.9221 1.67765 21.8245 1.35832C21.2198 1.19247 20.5852 1.16774 19.9695 1.28602C19.3538 1.4043 18.7735 1.66244 18.2733 2.04052C16.111 3.59376 15.1059 7.30935 16.9394 9.47171C17.3587 9.94847 17.6241 10.5409 17.7008 11.1711C17.7252 11.4841 17.6347 11.7952 17.4464 12.0463C17.2581 12.2974 16.9847 12.4713 16.6775 12.5355C13.0829 13.2809 9.72473 14.893 6.8951 17.2318C4.85087 18.9312 3.17068 21.0257 1.95519 23.3899C0.766824 25.7069 0.0994853 28.2557 -6.44804e-05 30.8577C-0.0815061 33.5626 0.407989 36.2544 1.43651 38.7575C2.46504 41.2605 4.00951 43.5188 5.96925 45.385C8.1071 47.4454 10.6331 49.0603 13.4004 50.1361C14.1253 50.3858 14.844 50.6539 15.575 50.867C16.3059 51.0802 17.0673 51.263 17.8287 51.4031C18.5901 51.5432 19.3636 51.6284 20.1372 51.7137L22.464 51.8294L24.7848 51.7015C25.5522 51.6162 26.3197 51.4944 27.0872 51.3787C27.8547 51.263 28.5856 51.0193 29.3348 50.8366C30.084 50.6538 30.7784 50.3432 31.4972 50.0935C34.246 49.0063 36.7498 47.3806 38.8614 45.3119C40.7916 43.4474 42.3109 41.2001 43.3221 38.7141C44.3332 36.2282 44.8139 33.5584 44.7332 30.8759Z" fill="#B8DE00"/>
<path d="M11.1651 40.8106C9.54574 39.663 8.19763 38.1744 7.21575 36.4496C6.23387 34.7247 5.6421 32.8055 5.48211 30.8272C5.38754 28.7908 5.73183 26.7579 6.49166 24.8663C7.25148 22.9746 8.40908 21.2683 9.886 19.8632C11.2247 18.5407 12.7723 17.4479 14.4665 16.6288C14.516 16.6038 14.5722 16.5956 14.6267 16.6053C14.6813 16.6151 14.7312 16.6422 14.7689 16.6827C14.8067 16.7233 14.8303 16.7749 14.8362 16.83C14.8421 16.8851 14.8299 16.9406 14.8015 16.9882C12.8097 20.0825 9.68499 25.4244 9.56317 30.2607C9.53075 32.6127 10.1871 34.9227 11.4514 36.9062C11.5051 36.9814 11.5806 37.0383 11.6677 37.0692C11.7548 37.1001 11.8493 37.1035 11.9383 37.0789C12.0274 37.0543 12.1068 37.0029 12.1657 36.9317C12.2246 36.8605 12.2602 36.7729 12.2676 36.6808C12.3965 34.8967 12.9749 33.1742 13.9488 31.6739C13.9873 31.61 14.0463 31.5612 14.1162 31.5353C14.1861 31.5094 14.2627 31.508 14.3335 31.5314C14.4043 31.5547 14.4651 31.6015 14.5058 31.6639C14.5466 31.7263 14.565 31.8007 14.5579 31.8749C14.4178 33.9154 14.3021 37.7224 14.4483 41.0481C14.4555 41.2274 14.4143 41.4054 14.329 41.5633C14.2438 41.7212 14.1175 41.8532 13.9636 41.9454C13.8096 42.0377 13.6337 42.0867 13.4542 42.0875C13.2748 42.0882 13.0984 42.0406 12.9437 41.9496C12.3277 41.6074 11.7337 41.227 11.1651 40.8106Z" fill="#252525"/>
<path d="M39.6593 30.8455C39.4461 34.8352 37.1559 38.5081 33.8789 40.8776C33.0648 41.473 32.2007 41.9968 31.2962 42.443C31.1361 42.5252 30.9567 42.5626 30.777 42.5513C30.5973 42.5399 30.4241 42.4802 30.2756 42.3785C30.127 42.2768 30.0088 42.1368 29.9332 41.9734C29.8577 41.81 29.8278 41.6292 29.8465 41.4501C30.1666 38.2272 30.2033 34.9824 29.9562 31.7531C29.9489 31.6845 29.9638 31.6155 29.9986 31.556C30.0334 31.4966 30.0864 31.4498 30.1497 31.4226C30.213 31.3953 30.2833 31.3891 30.3504 31.4047C30.4175 31.4203 30.4779 31.457 30.5226 31.5094C31.6008 32.6667 32.35 34.4453 32.35 37.3143C32.3464 37.411 32.374 37.5063 32.4288 37.5861C32.4835 37.6659 32.5625 37.726 32.6541 37.7574C32.7456 37.7888 32.8448 37.7899 32.9371 37.7606C33.0293 37.7313 33.1096 37.673 33.1662 37.5945C34.2023 35.9668 34.8735 34.134 35.1336 32.2221C35.6514 25.5827 31.3876 18.8825 29.8465 16.708C29.8132 16.6615 29.7964 16.6051 29.7988 16.548C29.8012 16.4908 29.8228 16.4361 29.86 16.3926C29.8971 16.3491 29.9478 16.3194 30.0039 16.3081C30.06 16.2968 30.1182 16.3046 30.1694 16.3303C32.0273 17.1713 33.727 18.3251 35.1945 19.7413C36.695 21.1611 37.8708 22.8885 38.6414 24.8051C39.4121 26.7217 39.7593 28.7822 39.6593 30.8455Z" fill="#252525"/>
<path d="M22.3728 45.4398C24.4922 45.4398 26.2102 38.5294 26.2102 30.0049C26.2102 21.4804 24.4922 14.57 22.3728 14.57C20.2535 14.57 18.5354 21.4804 18.5354 30.0049C18.5354 38.5294 20.2535 45.4398 22.3728 45.4398Z" fill="white"/>
</g>
<defs>
<clipPath id="clip0_878_734">
<rect width="182.734" height="52" fill="white"/>
</clipPath>
</defs>
</svg>
