<svg width="183" height="52" viewBox="0 0 183 52" fill="none" xmlns="http://www.w3.org/2000/svg">
<path d="M61.8798 17.378C63.2208 17.3422 64.5534 17.6 65.7842 18.1333C66.8066 18.5804 67.672 19.3228 68.2694 20.2652C68.8521 21.2462 69.1476 22.3711 69.1222 23.5118C69.1488 24.6507 68.8532 25.774 68.2694 26.7522C67.6724 27.6965 66.807 28.4409 65.7842 28.8902C64.5482 29.4202 63.212 29.6758 61.8676 29.6394H54.7593V25.1259H61.5205C62.0011 25.1572 62.4757 25.0048 62.8483 24.6995C63.1501 24.374 63.3178 23.9465 63.3178 23.5026C63.3178 23.0587 63.1501 22.6312 62.8483 22.3057C62.4712 22.0101 61.9988 21.8627 61.5205 21.8915H55.2527L57.8658 19.2845V34.22H52.067V17.378H61.8798Z" fill="#252525"/>
<path d="M77.065 25.802L76.0356 32.0637L73.8306 29.6273H86.622V34.2078H70.3038L71.5221 25.7899L70.3038 17.3658H86.6098V21.9463H73.8184L76.0234 19.5099L77.065 25.802ZM86.6098 23.8041V27.7999H73.0936V23.8041H86.6098Z" fill="#252525"/>
<path d="M104.914 29.9988L103.342 30.3826V17.378H108.958V34.22H101.722L93.3467 21.2398L94.9243 20.8621V34.22H89.3082V17.378H96.7821L104.914 29.9988Z" fill="#252525"/>
<path d="M129.528 26.9472C129.476 27.9274 129.27 28.8934 128.919 29.81C128.567 30.7274 128.039 31.5674 127.366 32.283C126.64 33.0427 125.753 33.6298 124.771 34.0007C123.578 34.439 122.313 34.6457 121.043 34.6098C119.789 34.6162 118.541 34.4271 117.346 34.0494C116.222 33.6936 115.178 33.1249 114.27 32.3744C113.372 31.6209 112.654 30.676 112.168 29.609C111.64 28.4043 111.38 27.099 111.407 25.7838C111.38 24.4666 111.64 23.1593 112.168 21.9525C112.657 20.8809 113.387 19.9366 114.3 19.1932C115.239 18.4369 116.314 17.8682 117.467 17.5181C120.388 16.6778 123.499 16.7845 126.354 17.8227C127.644 18.3302 128.792 19.1433 129.698 20.1921C130.542 21.191 131.119 22.3877 131.374 23.6702H125.556C125.412 23.2382 125.132 22.8643 124.759 22.6042C124.32 22.2928 123.829 22.0637 123.309 21.9281C122.686 21.768 122.045 21.6902 121.402 21.6966C120.63 21.6767 119.863 21.8264 119.155 22.1352C118.54 22.4112 118.031 22.8793 117.705 23.4691C117.342 24.1849 117.168 24.9817 117.199 25.7838C117.167 26.6152 117.366 27.4394 117.772 28.1654C118.146 28.7947 118.712 29.2878 119.386 29.5725C120.19 29.8892 121.05 30.0424 121.914 30.0232C122.764 30.036 123.611 29.9252 124.43 29.6943C125.1 29.5149 125.714 29.1692 126.214 28.6892C126.676 28.2153 126.971 27.6038 127.055 26.9472H129.528ZM122.298 29.1887V25.2173H131.508V34.22H127.487L126.635 27.7756L127.646 29.1887H122.298Z" fill="#252525"/>
<path d="M139.999 26.4964C139.982 27.0422 140.093 27.5843 140.321 28.0801C140.537 28.5172 140.884 28.8753 141.314 29.1034C141.853 29.3629 142.447 29.4863 143.044 29.4628C143.648 29.4866 144.249 29.3677 144.798 29.1156C145.23 28.8913 145.577 28.532 145.785 28.0923C146.003 27.5891 146.109 27.0446 146.096 26.4964V17.3597H151.895V26.801C151.927 28.2467 151.544 29.6714 150.792 30.9064C150.043 32.0912 148.972 33.0378 147.704 33.6352C146.24 34.2821 144.657 34.6162 143.056 34.6162C141.456 34.6162 139.873 34.2821 138.409 33.6352C137.117 33.0309 136.03 32.0619 135.282 30.8475C134.535 29.6332 134.158 28.2266 134.2 26.801V17.378H139.999V26.4964Z" fill="#252525"/>
<path d="M154.593 17.378H160.386V34.22H154.593V17.378Z" fill="#252525"/>
<path d="M178.689 29.9988L177.118 30.3826V17.378H182.734V34.22H175.479L167.122 21.2398L168.7 20.8621V34.22H163.084V17.378H170.552L178.689 29.9988Z" fill="#252525"/>
<path d="M51.726 43.5029H54.8202C54.8534 43.6816 54.9509 43.842 55.0943 43.9536C55.2758 44.0882 55.4832 44.1836 55.7035 44.2338C56.379 44.3832 57.0803 44.3707 57.7501 44.1973C58.0181 44.0998 58.1521 43.9475 58.1521 43.7283C58.1486 43.654 58.126 43.582 58.0865 43.519C58.047 43.4561 57.992 43.4044 57.9267 43.3689C57.6339 43.2372 57.3159 43.1707 56.9948 43.174L55.5207 43.0765C54.4897 43.09 53.4787 42.7906 52.6213 42.2176C52.3415 41.9864 52.1193 41.6932 51.9723 41.3613C51.8254 41.0293 51.7577 40.6677 51.7747 40.305C51.7519 39.6988 51.956 39.1058 52.3473 38.6422C52.7773 38.1646 53.3321 37.8166 53.9492 37.6371C54.7393 37.4013 55.5613 37.2903 56.3857 37.3082C57.197 37.2937 58.0048 37.4194 58.7734 37.6798C59.4024 37.8889 59.9696 38.251 60.4241 38.7335C60.8248 39.168 61.0636 39.7273 61.1002 40.3172H57.9389C57.9105 40.169 57.828 40.0365 57.7074 39.9457C57.5418 39.8277 57.3528 39.7467 57.1532 39.7081C56.8666 39.6497 56.5745 39.6232 56.2821 39.6289C55.9344 39.6173 55.587 39.6605 55.2527 39.7568C55.003 39.8421 54.8812 39.9883 54.8812 40.1832C54.8838 40.2553 54.9054 40.3254 54.944 40.3864C54.9825 40.4474 55.0365 40.4971 55.1004 40.5304C55.367 40.6564 55.6584 40.721 55.9532 40.7192L57.6161 40.8289C58.3373 40.8554 59.051 40.9846 59.7358 41.2126C60.1989 41.3642 60.6075 41.6479 60.9114 42.0288C61.1718 42.4193 61.3039 42.8814 61.289 43.3506C61.2928 43.9786 61.0774 44.5882 60.6799 45.0744C60.2627 45.602 59.7116 46.008 59.084 46.25C58.3034 46.5328 57.4778 46.671 56.6476 46.6581C55.7742 46.6836 54.9029 46.56 54.071 46.2926C53.4192 46.069 52.8375 45.6783 52.3838 45.1597C51.9753 44.7027 51.7422 44.1156 51.726 43.5029Z" fill="#252525"/>
<path d="M62.0686 37.5214H71.5586V40.2563H62.0686V37.5214ZM65.2786 38.8431H68.3242V46.4449H65.2786V38.8431Z" fill="#252525"/>
<path d="M75.9503 42.3516C75.9424 42.6412 76.0007 42.9287 76.1209 43.1922C76.2364 43.4224 76.4219 43.6101 76.6508 43.7282C76.9366 43.8682 77.2526 43.9352 77.5706 43.9231C77.89 43.9368 78.2079 43.872 78.4964 43.7343C78.7274 43.6211 78.9123 43.4318 79.0203 43.1983C79.1348 42.931 79.1908 42.6423 79.1847 42.3516V37.5214H82.2303V42.5161C82.2407 43.2864 82.0292 44.0433 81.6212 44.6967C81.224 45.3222 80.6581 45.8227 79.9888 46.1403C79.2127 46.4836 78.3735 46.6609 77.5249 46.6609C76.6763 46.6609 75.8371 46.4836 75.061 46.1403C74.3704 45.8189 73.7903 45.3005 73.3936 44.6502C72.9969 43.9999 72.8014 43.2468 72.8317 42.4856V37.5214H75.8772L75.9503 42.3516Z" fill="#252525"/>
<path d="M88.3214 37.5214C89.3005 37.498 90.2731 37.6872 91.1721 38.0757C91.9396 38.4034 92.5985 38.942 93.0725 39.6289C93.5141 40.3336 93.7483 41.1484 93.7483 41.9801C93.7483 42.8117 93.5141 43.6265 93.0725 44.3312C92.597 45.0182 91.9386 45.5583 91.1721 45.8906C90.2731 46.2791 89.3005 46.4682 88.3214 46.4449H83.5886V37.5214H88.3214ZM86.622 45.0744L85.2393 43.71H88.5468C88.9332 43.7188 89.3172 43.6461 89.6737 43.4968C89.9697 43.3717 90.2205 43.1592 90.3924 42.8877C90.5528 42.6099 90.6372 42.2947 90.6372 41.974C90.6372 41.6532 90.5528 41.3381 90.3924 41.0603C90.2187 40.7903 89.9685 40.5782 89.6737 40.4512C89.3158 40.3069 88.9325 40.2365 88.5468 40.2441H85.2393L86.622 38.8797V45.0744Z" fill="#252525"/>
<path d="M94.9607 37.5214H98.0063V46.4449H94.9607V37.5214Z" fill="#252525"/>
<path d="M104.664 46.6581C103.68 46.6718 102.706 46.4636 101.813 46.049C101.038 45.711 100.373 45.1623 99.8946 44.4653C99.4483 43.7231 99.2125 42.8735 99.2125 42.0075C99.2125 41.1415 99.4483 40.2919 99.8946 39.5497C100.36 38.8367 101.016 38.2689 101.789 37.9112C102.691 37.5293 103.66 37.3324 104.64 37.3324C105.619 37.3324 106.588 37.5293 107.49 37.9112C108.263 38.2689 108.919 38.8367 109.385 39.5497C109.831 40.2919 110.067 41.1415 110.067 42.0075C110.067 42.8735 109.831 43.7231 109.385 44.4653C108.919 45.1768 108.263 45.7426 107.49 46.0977C106.601 46.492 105.636 46.6835 104.664 46.6581ZM104.664 43.9232C105.081 43.9287 105.496 43.8499 105.882 43.6917C106.21 43.5515 106.489 43.3186 106.686 43.0217C106.882 42.7106 106.98 42.3476 106.966 41.9801C106.977 41.613 106.88 41.2508 106.686 40.9385C106.488 40.6438 106.209 40.4131 105.882 40.2746C105.078 39.966 104.189 39.966 103.385 40.2746C103.058 40.4131 102.779 40.6438 102.581 40.9385C102.39 41.2519 102.293 41.6133 102.301 41.9801C102.291 42.3471 102.389 42.7088 102.581 43.0217C102.778 43.3186 103.057 43.5515 103.385 43.6917C103.79 43.8582 104.226 43.9371 104.664 43.9232Z" fill="#252525"/>
<path d="M44.7333 30.8759C44.6409 28.3021 43.9904 25.779 42.8268 23.4813C41.6205 21.1492 39.9644 19.079 37.9539 17.3902C35.6315 15.4457 32.9372 13.995 30.0354 13.1264C28.3383 12.6181 26.7629 11.7683 25.4062 10.629L25.2478 10.495C24.8256 10.0895 24.4976 9.59615 24.2871 9.04987C24.0765 8.50359 23.9886 7.91772 24.0296 7.33372C24.0926 6.67225 24.3348 6.04049 24.7301 5.50638C25.877 3.88006 27.4548 2.60596 29.2862 1.82733L29.5542 1.69942C29.7505 1.62834 29.9105 1.4822 29.999 1.29315C30.0876 1.10409 30.0974 0.887618 30.0263 0.691338C29.9552 0.495059 29.8091 0.335055 29.62 0.246526C29.431 0.157997 29.2145 0.148195 29.0182 0.219275C28.806 0.288833 28.6019 0.380715 28.4091 0.493376C27.4312 1.08536 26.341 1.46789 25.2076 1.61678C24.0742 1.76566 22.9222 1.67765 21.8246 1.35832C21.22 1.19247 20.5853 1.16774 19.9696 1.28602C19.3539 1.4043 18.7736 1.66244 18.2735 2.04052C16.1111 3.59376 15.1061 7.30935 16.9395 9.47171C17.3588 9.94847 17.6242 10.5409 17.7009 11.1711C17.7253 11.4841 17.6349 11.7952 17.4465 12.0463C17.2582 12.2974 16.9848 12.4713 16.6776 12.5355C13.083 13.2809 9.72485 14.893 6.89522 17.2318C4.85099 18.9312 3.1708 21.0257 1.95531 23.3899C0.766946 25.7069 0.0996074 28.2557 5.75902e-05 30.8577C-0.081384 33.5626 0.408111 36.2544 1.43664 38.7575C2.46516 41.2605 4.00963 43.5188 5.96937 45.385C8.10722 47.4454 10.6332 49.0603 13.4005 50.1361C14.1254 50.3858 14.8441 50.6539 15.5751 50.867C16.306 51.0802 17.0674 51.263 17.8288 51.4031C18.5902 51.5432 19.3638 51.6284 20.1373 51.7137L22.4642 51.8294L24.7849 51.7015C25.5524 51.6162 26.3198 51.4944 27.0873 51.3787C27.8548 51.263 28.5857 51.0193 29.335 50.8366C30.0842 50.6538 30.7785 50.3432 31.4973 50.0935C34.2462 49.0063 36.7499 47.3806 38.8615 45.3119C40.7917 43.4473 42.3111 41.2001 43.3222 38.7141C44.3334 36.2282 44.814 33.5584 44.7333 30.8759Z" fill="#252525"/>
<path d="M11.165 40.8106C9.54562 39.663 8.19751 38.1744 7.21563 36.4496C6.23375 34.7247 5.64197 32.8055 5.48199 30.8272C5.38742 28.7908 5.73171 26.7579 6.49154 24.8663C7.25136 22.9746 8.40896 21.2683 9.88588 19.8632C11.2246 18.5407 12.7722 17.4479 14.4664 16.6288C14.5159 16.6038 14.5721 16.5956 14.6266 16.6053C14.6811 16.6151 14.731 16.6422 14.7688 16.6827C14.8066 16.7233 14.8302 16.7749 14.8361 16.83C14.8419 16.8851 14.8298 16.9406 14.8014 16.9882C12.8096 20.0825 9.68487 25.4244 9.56305 30.2607C9.53063 32.6127 10.187 34.9227 11.4513 36.9062C11.505 36.9814 11.5805 37.0383 11.6676 37.0692C11.7546 37.1001 11.8491 37.1035 11.9382 37.0789C12.0273 37.0543 12.1066 37.0029 12.1656 36.9317C12.2245 36.8605 12.26 36.7729 12.2675 36.6808C12.3964 34.8967 12.9747 33.1742 13.9487 31.6739C13.9872 31.61 14.0462 31.5612 14.1161 31.5353C14.186 31.5094 14.2626 31.508 14.3334 31.5314C14.4042 31.5547 14.465 31.6015 14.5057 31.6639C14.5465 31.7263 14.5648 31.8007 14.5578 31.8749C14.4177 33.9154 14.3019 37.7224 14.4481 41.0481C14.4554 41.2274 14.4142 41.4054 14.3289 41.5633C14.2436 41.7212 14.1174 41.8532 13.9634 41.9454C13.8095 42.0377 13.6336 42.0867 13.4541 42.0875C13.2747 42.0882 13.0983 42.0406 12.9436 41.9496C12.3276 41.6074 11.7335 41.227 11.165 40.8106Z" fill="#B8DE00"/>
<path d="M39.6593 30.8455C39.4461 34.8352 37.1559 38.5081 33.8789 40.8776C33.0648 41.473 32.2007 41.9968 31.2962 42.443C31.1361 42.5252 30.9567 42.5626 30.777 42.5513C30.5973 42.5399 30.4241 42.4802 30.2756 42.3785C30.127 42.2768 30.0088 42.1368 29.9332 41.9734C29.8577 41.81 29.8278 41.6292 29.8465 41.4501C30.1666 38.2272 30.2033 34.9824 29.9562 31.7531C29.9489 31.6845 29.9638 31.6155 29.9986 31.556C30.0334 31.4966 30.0864 31.4498 30.1497 31.4226C30.213 31.3953 30.2833 31.3891 30.3504 31.4047C30.4175 31.4203 30.4779 31.457 30.5226 31.5094C31.6008 32.6667 32.35 34.4453 32.35 37.3143C32.3464 37.411 32.374 37.5063 32.4288 37.5861C32.4835 37.6659 32.5625 37.726 32.6541 37.7574C32.7456 37.7888 32.8448 37.7899 32.9371 37.7606C33.0293 37.7313 33.1096 37.673 33.1662 37.5945C34.2023 35.9668 34.8735 34.134 35.1336 32.2221C35.6514 25.5827 31.3876 18.8825 29.8465 16.708C29.8132 16.6615 29.7964 16.6051 29.7988 16.548C29.8012 16.4908 29.8228 16.4361 29.86 16.3926C29.8971 16.3491 29.9478 16.3194 30.0039 16.3081C30.06 16.2968 30.1182 16.3046 30.1694 16.3303C32.0273 17.1713 33.727 18.3251 35.1945 19.7413C36.695 21.1611 37.8708 22.8885 38.6414 24.8051C39.4121 26.7217 39.7593 28.7822 39.6593 30.8455Z" fill="#B8DE00"/>
<path d="M22.3727 45.4398C24.492 45.4398 26.2101 38.5294 26.2101 30.0049C26.2101 21.4804 24.492 14.57 22.3727 14.57C20.2533 14.57 18.5353 21.4804 18.5353 30.0049C18.5353 38.5294 20.2533 45.4398 22.3727 45.4398Z" fill="white"/>
</svg>
