<svg xmlns="http://www.w3.org/2000/svg" viewBox="0 0 300 85.37">
<path fill="#fff" d="M101.59,28.53A15.11,15.11,0,0,1,108,29.77a9.19,9.19,0,0,1,4.08,3.5,10,10,0,0,1,1.4,5.33,9.93,9.93,0,0,1-1.4,5.32A9.21,9.21,0,0,1,108,47.43a15.27,15.27,0,0,1-6.43,1.23H89.9V41.25H101a3.12,3.12,0,0,0,2.18-.7,2.89,2.89,0,0,0,0-3.93,3.22,3.22,0,0,0-2.18-.68H90.71L95,31.66V56.18H85.48V28.53Z"/>
<path fill="#fff" d="M126.52,42.36l-1.69,10.28-3.62-4h21v7.52H115.42l2-13.82-2-13.83h26.77v7.52h-21l3.62-4Zm15.67-3.28v6.56H120V39.08Z"/>
<path fill="#fff" d="M172.24,49.25l-2.58.63V28.53h9.22V56.18H167L153.25,34.87l2.59-.62V56.18h-9.22V28.53h12.27Z"/>
<path fill="#fff" d="M212.65,44.24a15.43,15.43,0,0,1-1,4.7A12.42,12.42,0,0,1,209.1,53a11.51,11.51,0,0,1-4.26,2.82,16.4,16.4,0,0,1-6.12,1,19.82,19.82,0,0,1-6.07-.92,15.08,15.08,0,0,1-5.05-2.75,12.9,12.9,0,0,1-3.45-4.54,14.88,14.88,0,0,1-1.25-6.28,14.93,14.93,0,0,1,1.25-6.29,12.56,12.56,0,0,1,3.5-4.53,15.43,15.43,0,0,1,5.2-2.75,23.6,23.6,0,0,1,14.59.5,14.06,14.06,0,0,1,5.49,3.89,12.68,12.68,0,0,1,2.75,5.71h-9.55a3.47,3.47,0,0,0-1.31-1.75A7.28,7.28,0,0,0,202.44,36a12.09,12.09,0,0,0-3.13-.38,8.67,8.67,0,0,0-3.69.72,5.11,5.11,0,0,0-2.38,2.19,7.72,7.72,0,0,0-.83,3.8,7.42,7.42,0,0,0,.94,3.91A5.63,5.63,0,0,0,196,48.55a10.68,10.68,0,0,0,4.15.74,14.41,14.41,0,0,0,4.13-.54,6.76,6.76,0,0,0,2.93-1.65,5,5,0,0,0,1.38-2.86Zm-11.87,3.68V41.4H215.9V56.18h-6.6L207.9,45.6l1.66,2.32Z"/>
<path fill="#fff" d="M229.84,43.5a5.8,5.8,0,0,0,.53,2.6A3.8,3.8,0,0,0,232,47.78a6,6,0,0,0,2.84.59,6.31,6.31,0,0,0,2.88-.57,3.66,3.66,0,0,0,1.62-1.68,6.22,6.22,0,0,0,.51-2.62v-15h9.52V44a12.42,12.42,0,0,1-1.81,6.74,12.1,12.1,0,0,1-5.07,4.48,18.88,18.88,0,0,1-15.26,0A12,12,0,0,1,220.32,44V28.53h9.52Z"/>
<path fill="#fff" d="M253.8,28.53h9.51V56.18H253.8Z"/>
<path fill="#fff" d="M293.36,49.25l-2.58.63V28.53H300V56.18H288.09L274.37,34.87l2.59-.62V56.18h-9.22V28.53H280Z"/>
<path fill="#dedc00" d="M84.92,71.42H90a1.22,1.22,0,0,0,.45.74,2.68,2.68,0,0,0,1,.46,7.2,7.2,0,0,0,3.36-.06c.44-.16.66-.41.66-.77a.71.71,0,0,0-.37-.59,3.64,3.64,0,0,0-1.53-.32l-2.42-.16a8.37,8.37,0,0,1-4.76-1.41A3.84,3.84,0,0,1,85,66.17a4,4,0,0,1,.94-2.73,5.67,5.67,0,0,1,2.63-1.65,13,13,0,0,1,4-.54,11.57,11.57,0,0,1,3.92.61,6.57,6.57,0,0,1,2.71,1.73,4.22,4.22,0,0,1,1.11,2.6H95.12a1,1,0,0,0-.38-.61,2.33,2.33,0,0,0-.91-.39,6.52,6.52,0,0,0-1.43-.13,5.45,5.45,0,0,0-1.69.21c-.41.14-.61.38-.61.7a.67.67,0,0,0,.36.57,3.23,3.23,0,0,0,1.4.31l2.73.18a12.47,12.47,0,0,1,3.48.63A4.1,4.1,0,0,1,100,69a3.7,3.7,0,0,1,.62,2.17,4.43,4.43,0,0,1-1,2.83A6.17,6.17,0,0,1,97,75.93a11.23,11.23,0,0,1-4,.67A12.62,12.62,0,0,1,88.77,76,6.47,6.47,0,0,1,86,74.14,4.25,4.25,0,0,1,84.92,71.42Z"/>
<path fill="#dedc00" d="M101.9,61.6h15.58v4.49H101.9Zm5.27,2.17h5V76.25h-5Z"/>
<path fill="#dedc00" d="M124.69,69.53a3.12,3.12,0,0,0,.28,1.38,2,2,0,0,0,.87.88,3.16,3.16,0,0,0,1.51.32,3.21,3.21,0,0,0,1.52-.31,1.84,1.84,0,0,0,.86-.88,3.35,3.35,0,0,0,.27-1.39V61.6h5v8.2a6.59,6.59,0,0,1-1,3.58,6.45,6.45,0,0,1-2.68,2.37,10,10,0,0,1-8.09,0,6.34,6.34,0,0,1-3.66-6V61.6h5Z"/>
<path fill="#dedc00" d="M145,61.6a11.13,11.13,0,0,1,4.68.91,7.25,7.25,0,0,1,3.12,2.55,7.27,7.27,0,0,1,0,7.72,7.35,7.35,0,0,1-3.12,2.56,11.13,11.13,0,0,1-4.68.91h-7.77V61.6ZM142.21,74l-2.27-2.24h5.43a4.52,4.52,0,0,0,1.85-.35,2.59,2.59,0,0,0,1.18-1,3,3,0,0,0,0-3,2.65,2.65,0,0,0-1.18-1,4.7,4.7,0,0,0-1.85-.34h-5.43l2.27-2.24Z"/>
<path fill="#dedc00" d="M155.9,61.6h5V76.25h-5Z"/>
<path fill="#dedc00" d="M171.83,76.6a10.75,10.75,0,0,1-4.68-1A7.42,7.42,0,0,1,164,73a7.83,7.83,0,0,1,0-8.07,7.45,7.45,0,0,1,3.11-2.69,12,12,0,0,1,9.36,0,7.45,7.45,0,0,1,3.11,2.69,7.83,7.83,0,0,1,0,8.07,7.42,7.42,0,0,1-3.11,2.68A10.75,10.75,0,0,1,171.83,76.6Zm0-4.49a5.1,5.1,0,0,0,2-.38,3,3,0,0,0,1.32-1.1,3,3,0,0,0,.46-1.71,3.08,3.08,0,0,0-.46-1.71,3,3,0,0,0-1.32-1.09,5.72,5.72,0,0,0-4.1,0,3,3,0,0,0-1.32,1.09,3.16,3.16,0,0,0-.46,1.71,3.12,3.12,0,0,0,.46,1.71,3,3,0,0,0,1.32,1.1A5.1,5.1,0,0,0,171.83,72.11Z"/>
<path fill="#dedc00" d="M73.44,50.69a29.19,29.19,0,0,0-3.13-12.14,32.65,32.65,0,0,0-8-10,36.6,36.6,0,0,0-13-7,21.34,21.34,0,0,1-7.6-4.1l-.26-.22a6.56,6.56,0,0,1-2-5.19,6,6,0,0,1,1.15-3A17.56,17.56,0,0,1,48.08,3l.44-.21A1.27,1.27,0,0,0,47.64.36a5.18,5.18,0,0,0-1,.45A13.56,13.56,0,0,1,35.83,2.23,6.72,6.72,0,0,0,30,3.35C26.45,5.9,24.8,12,27.81,15.55a5.17,5.17,0,0,1,1.25,2.79,2.12,2.12,0,0,1-1.68,2.24,37,37,0,0,0-16.06,7.71A32.43,32.43,0,0,0,3.21,38.4,29.32,29.32,0,0,0,0,50.66a31.62,31.62,0,0,0,9.8,23.85A36.79,36.79,0,0,0,22,82.31c1.19.41,2.37.85,3.57,1.2s2.45.65,3.7.88,2.52.37,3.79.51l3.82.19,3.81-.21c1.26-.14,2.52-.34,3.78-.53s2.46-.59,3.69-.89,2.37-.81,3.55-1.22A36.41,36.41,0,0,0,63.8,74.39,31.63,31.63,0,0,0,73.44,50.69ZM24.34,27.86c-3.27,5.08-8.4,13.85-8.6,21.79a19.79,19.79,0,0,0,3.1,10.91.74.74,0,0,0,1.34-.37A17.4,17.4,0,0,1,22.9,52a.54.54,0,0,1,1,.33c-.23,3.35-.42,9.6-.18,15.06a1.64,1.64,0,0,1-2.47,1.48A27.72,27.72,0,0,1,18.33,67,22.29,22.29,0,0,1,9,50.61a23.35,23.35,0,0,1,7.23-18,27.89,27.89,0,0,1,7.52-5.31A.42.42,0,0,1,24.34,27.86ZM36.73,74.6c-3.47,0-6.29-11.35-6.29-25.34s2.82-25.34,6.29-25.34S43,35.26,43,49.26,40.21,74.6,36.73,74.6Zm28.38-24c-.35,6.55-4.11,12.58-9.49,16.47a28.67,28.67,0,0,1-4.24,2.57A1.64,1.64,0,0,1,49,68.05a90.91,90.91,0,0,0,.18-15.92.53.53,0,0,1,.93-.4c1.77,1.9,3,4.82,3,9.53a.74.74,0,0,0,1.34.46,21.93,21.93,0,0,0,3.23-8.82C58.53,42,51.53,31,49,27.43a.42.42,0,0,1,.53-.62,29.25,29.25,0,0,1,8.25,5.6A23.53,23.53,0,0,1,65.11,50.64Z"/>
</svg>